grf
version=1
nRows=19
nColumns=37
inDegrees=no
endheader
time	ground_force_1_vx	ground_force_1_vy	ground_force_1_vz	ground_force_1_px	ground_force_1_py	ground_force_1_pz	ground_moment_1_mx	ground_moment_1_my	ground_moment_1_mz	ground_force_2_vx	ground_force_2_vy	ground_force_2_vz	ground_force_2_px	ground_force_2_py	ground_force_2_pz	ground_moment_2_mx	ground_moment_2_my	ground_moment_2_mz	ground_force_3_vx	ground_force_3_vy	ground_force_3_vz	ground_force_3_px	ground_force_3_py	ground_force_3_pz	ground_moment_3_mx	ground_moment_3_my	ground_moment_3_mz	ground_force_4_vx	ground_force_4_vy	ground_force_4_vz	ground_force_4_px	ground_force_4_py	ground_force_4_pz	ground_moment_4_mx	ground_moment_4_my	ground_moment_4_mz
      5.02000000	      0.00000000	     -0.00000000	      0.00000000	      0.00000000	      0.00000000	      0.00000000	      0.00000000	      0.00000000	      0.00000000	     -8.27688026	     -9.48409271	   -348.69335938	   -392.28359221	  -1081.94884362	      0.00000000	      0.00000000	      0.00000000	   5840.18117279	     -0.00995131	     10.59860230	   -394.12802124	   -395.95373532	   -709.97494528	      0.00000000	      0.00000000	     -0.00000000	  -5011.65911008	      0.00000000	     -0.00000000	      0.00000000	      0.00000000	      0.00000000	      0.00000000	      0.00000000	      0.00000000	      0.00000000
      5.03000000	      0.00000000	     -0.00000000	      0.00000000	      0.00000000	      0.00000000	      0.00000000	      0.00000000	      0.00000000	      0.00000000	     -8.46535301	     -9.01180744	   -348.90359497	   -391.86619391	  -1081.39371644	      0.00000000	      0.00000000	      0.00000000	   6011.16167759	     -0.07895904	     10.99750996	   -396.77822876	   -395.70052301	   -709.75263894	      0.00000000	      0.00000000	     -0.00000000	  -5047.13942494	      0.00000000	     -0.00000000	      0.00000000	      0.00000000	      0.00000000	      0.00000000	      0.00000000	      0.00000000	      0.00000000
      5.04000000	      0.00000000	     -0.00000000	      0.00000000	      0.00000000	      0.00000000	      0.00000000	      0.00000000	      0.00000000	      0.00000000	     -9.52836037	     -8.22656631	   -352.12042236	   -391.66602792	  -1081.59627144	      0.00000000	     -0.00000000	      0.00000000	   6043.76835289	     -0.16788484	     11.09276296	   -399.04275513	   -395.66445653	   -710.30349352	      0.00000000	     -0.00000000	     -0.00000000	  -4923.04260725	      0.00000000	     -0.00000000	      0.00000000	      0.00000000	      0.00000000	      0.00000000	      0.00000000	      0.00000000	      0.00000000
      5.05000000	      0.00000000	     -0.00000000	      0.00000000	      0.00000000	      0.00000000	      0.00000000	      0.00000000	      0.00000000	      0.00000000	     -9.88389111	     -7.68261862	   -355.61563110	   -390.05444848	  -1081.72374954	      0.00000000	      0.00000000	      0.00000000	   6178.69184927	     -0.57582941	     10.60790639	   -400.68518066	   -395.60223734	   -710.19637765	      0.00000000	      0.00000000	     -0.00000000	  -4911.74994978	      0.00000000	     -0.00000000	      0.00000000	      0.00000000	      0.00000000	      0.00000000	      0.00000000	      0.00000000	      0.00000000
      5.06000000	      0.00000000	     -0.00000000	      0.00000000	      0.00000000	      0.00000000	      0.00000000	      0.00000000	      0.00000000	      0.00000000	     -9.97385597	     -7.57608414	   -357.10058594	   -390.58120004	  -1081.90020264	      0.00000000	      0.00000000	      0.00000000	   6100.42916436	     -0.72709563	     10.60768229	   -402.15417480	   -395.38902604	   -709.29709858	      0.00000000	      0.00000000	     -0.00000000	  -4819.23277718	      0.00000000	     -0.00000000	      0.00000000	      0.00000000	      0.00000000	      0.00000000	      0.00000000	      0.00000000	      0.00000000
      5.07000000	      0.00000000	     -0.00000000	      0.00000000	      0.00000000	      0.00000000	      0.00000000	      0.00000000	      0.00000000	      0.00000000	     -9.17104340	     -7.71876049	   -357.98348999	   -390.12574112	  -1082.19112106	      0.00000000	      0.00000000	      0.00000000	   6180.76376031	     -0.15082674	     10.37770177	   -402.32733154	   -394.84861153	   -708.41275036	      0.00000000	      0.00000000	     -0.00000000	  -4675.58786701	      0.00000000	     -0.00000000	      0.00000000	      0.00000000	      0.00000000	      0.00000000	      0.00000000	      0.00000000	      0.00000000
      5.08000000	      0.00000000	     -0.00000000	      0.00000000	      0.00000000	      0.00000000	      0.00000000	      0.00000000	      0.00000000	      0.00000000	     -8.92967796	     -7.65659523	   -355.30291748	   -390.63877362	  -1080.61010004	      0.00000000	      0.00000000	      0.00000000	   6043.00231242	      0.25739561	     11.37565611	   -400.12774658	   -394.48659483	   -708.80118698	      0.00000000	      0.00000000	     -0.00000000	  -4666.36200564	      0.00000000	     -0.00000000	      0.00000000	      0.00000000	      0.00000000	      0.00000000	      0.00000000	      0.00000000	      0.00000000
      5.09000000	      0.00000000	     -0.00000000	      0.00000000	      0.00000000	      0.00000000	      0.00000000	      0.00000000	      0.00000000	      0.00000000	     -8.09295368	     -7.82668877	   -357.34472656	   -389.13954651	  -1083.52018878	      0.00000000	      0.00000000	      0.00000000	   6054.75481306	      0.61246369	     11.34874243	   -397.33453369	   -394.97119920	   -709.77117630	      0.00000000	     -0.00000000	     -0.00000000	  -4654.81773155	      0.00000000	     -0.00000000	      0.00000000	      0.00000000	      0.00000000	      0.00000000	      0.00000000	      0.00000000	      0.00000000
      5.10000000	      0.00000000	     -0.00000000	      0.00000000	      0.00000000	      0.00000000	      0.00000000	      0.00000000	      0.00000000	      0.00000000	     -7.91273832	     -8.11907864	   -355.08526611	   -389.05398458	  -1083.16197625	      0.00000000	      0.00000000	      0.00000000	   6039.78286861	      1.47295888	     11.83510577	   -396.63623047	   -394.08083657	   -709.54385613	      0.00000000	      0.00000000	     -0.00000000	  -4729.14302339	      0.00000000	     -0.00000000	      0.00000000	      0.00000000	      0.00000000	      0.00000000	      0.00000000	      0.00000000	      0.00000000
      5.11000000	      0.00000000	     -0.00000000	      0.00000000	      0.00000000	      0.00000000	      0.00000000	      0.00000000	      0.00000000	      0.00000000	     -7.17994022	     -8.75080013	   -351.48944092	   -389.09530956	  -1082.65123377	      0.00000000	      0.00000000	      0.00000000	   5953.68891825	      0.94082826	     11.58069030	   -396.63623047	   -393.84848217	   -709.07999441	      0.00000000	      0.00000000	     -0.00000000	  -4696.94105819	      0.00000000	     -0.00000000	      0.00000000	      0.00000000	      0.00000000	      0.00000000	      0.00000000	      0.00000000	      0.00000000
      5.12000000	      0.00000000	     -0.00000000	      0.00000000	      0.00000000	      0.00000000	      0.00000000	      0.00000000	      0.00000000	      0.00000000	     -7.00115967	     -9.40918827	   -349.54071045	   -388.40232343	  -1082.81673565	      0.00000000	      0.00000000	     -0.00000000	   5968.15305694	      0.38177534	     10.79417607	   -395.89425659	   -393.23499837	   -708.95643156	      0.00000000	      0.00000000	     -0.00000000	  -4654.64153123	      0.00000000	     -0.00000000	      0.00000000	      0.00000000	      0.00000000	      0.00000000	      0.00000000	      0.00000000	      0.00000000
      5.13000000	      0.00000000	     -0.00000000	      0.00000000	      0.00000000	      0.00000000	      0.00000000	      0.00000000	      0.00000000	      0.00000000	     -6.22951794	     -9.61848164	   -349.58789062	   -389.19083854	  -1083.45015057	      0.00000000	      0.00000000	     -0.00000000	   6133.59558856	      0.40883434	     10.61009594	   -395.69503784	   -393.63004079	   -708.46641932	      0.00000000	      0.00000000	     -0.00000000	  -4659.01918179	      0.00000000	     -0.00000000	      0.00000000	      0.00000000	      0.00000000	      0.00000000	      0.00000000	      0.00000000	      0.00000000
      5.14000000	      0.00000000	     -0.00000000	      0.00000000	      0.00000000	      0.00000000	      0.00000000	      0.00000000	      0.00000000	      0.00000000	     -5.89527655	     -9.31668854	   -348.55938721	   -388.30751154	  -1082.04688540	      0.00000000	     -0.00000000	      0.00000000	   6020.98882144	      1.02995979	     10.77524558	   -397.44110107	   -392.64741793	   -708.45204548	      0.00000000	      0.00000000	     -0.00000000	  -4592.39409191	      0.00000000	     -0.00000000	      0.00000000	      0.00000000	      0.00000000	      0.00000000	      0.00000000	      0.00000000	      0.00000000
      5.15000000	      0.00000000	     -0.00000000	      0.00000000	      0.00000000	      0.00000000	      0.00000000	      0.00000000	      0.00000000	      0.00000000	     -6.53393936	     -8.62551785	   -350.43429565	   -388.23614880	  -1083.20760129	      0.00000000	      0.00000000	     -0.00000000	   5797.39111987	      0.76395472	     10.48326581	   -396.28710938	   -392.88588209	   -708.74342580	      0.00000000	      0.00000000	     -0.00000000	  -4589.90573315	      0.00000000	     -0.00000000	      0.00000000	      0.00000000	      0.00000000	      0.00000000	      0.00000000	      0.00000000	      0.00000000
      5.16000000	      0.00000000	     -0.00000000	      0.00000000	      0.00000000	      0.00000000	      0.00000000	      0.00000000	      0.00000000	      0.00000000	     -6.36835670	     -8.28212357	   -348.94177246	   -388.97869290	  -1081.86960820	      0.00000000	      0.00000000	      0.00000000	   5992.54854968	     -0.14309719	      9.90490629	   -397.68371582	   -392.30305786	   -707.99511935	      0.00000000	      0.00000000	     -0.00000000	  -4611.77623921	      0.00000000	     -0.00000000	      0.00000000	      0.00000000	      0.00000000	      0.00000000	      0.00000000	      0.00000000	      0.00000000
      5.17000000	      0.00000000	     -0.00000000	      0.00000000	      0.00000000	      0.00000000	      0.00000000	      0.00000000	      0.00000000	      0.00000000	     -6.53984261	     -8.26845455	   -350.24572754	   -388.62173146	  -1084.18730119	      0.00000000	      0.00000000	      0.00000000	   5959.06827943	     -0.50499525	      9.98035054	   -396.04525757	   -393.08708954	   -708.44496575	      0.00000000	      0.00000000	     -0.00000000	  -4364.47940403	      0.00000000	     -0.00000000	      0.00000000	      0.00000000	      0.00000000	      0.00000000	      0.00000000	      0.00000000	      0.00000000
      5.18000000	      0.00000000	     -0.00000000	      0.00000000	      0.00000000	      0.00000000	      0.00000000	      0.00000000	      0.00000000	      0.00000000	     -6.03218365	     -8.50148869	   -350.32843018	   -388.64459742	  -1084.05161294	      0.00000000	      0.00000000	      0.00000000	   6041.11214581	     -0.41622064	     10.83635525	   -394.80932617	   -393.25377015	   -708.92640448	      0.00000000	      0.00000000	     -0.00000000	  -4348.81032089	      0.00000000	     -0.00000000	      0.00000000	      0.00000000	      0.00000000	      0.00000000	      0.00000000	      0.00000000	      0.00000000
      5.19000000	      0.00000000	     -0.00000000	      0.00000000	      0.00000000	      0.00000000	      0.00000000	      0.00000000	      0.00000000	      0.00000000	     -5.40784502	     -8.22119617	   -348.80722046	   -388.28268141	  -1083.15402694	      0.00000000	      0.00000000	      0.00000000	   6068.64749564	     -0.71619719	     10.94540602	   -393.44262695	   -392.85795671	   -708.44120312	      0.00000000	      0.00000000	     -0.00000000	  -4361.76610199	      0.00000000	     -0.00000000	      0.00000000	      0.00000000	      0.00000000	      0.00000000	      0.00000000	      0.00000000	      0.00000000
      5.20000000	      0.00000000	     -0.00000000	      0.00000000	      0.00000000	      0.00000000	      0.00000000	      0.00000000	      0.00000000	      0.00000000	     -5.22956800	     -8.83007717	   -347.23660278	   -388.73235943	  -1084.30284053	      0.00000000	      0.00000000	      0.00000000	   6062.04697091	     -0.38861059	     11.08010105	   -390.85836792	   -392.47723468	   -708.34547068	      0.00000000	      0.00000000	     -0.00000000	  -4417.47884865	      0.00000000	     -0.00000000	      0.00000000	      0.00000000	      0.00000000	      0.00000000	      0.00000000	      0.00000000	      0.00000000
